<svg xmlns="http://www.w3.org/2000/svg" viewBox="0 0 64 64" shape-rendering="crispEdges" role="img" aria-label="KolisCode">
  <title>KolisCode</title>
  
  <rect width="64" height="64" rx="10" fill="#1a0c00"></rect>
  
  <g opacity="0.04">
    <rect x="0" y="0" width="64" height="2" fill="#ffffff"></rect>
    <rect x="0" y="8" width="64" height="2" fill="#ffffff"></rect>
    <rect x="0" y="16" width="64" height="2" fill="#ffffff"></rect>
    <rect x="0" y="24" width="64" height="2" fill="#ffffff"></rect>
    <rect x="0" y="32" width="64" height="2" fill="#ffffff"></rect>
    <rect x="0" y="40" width="64" height="2" fill="#ffffff"></rect>
    <rect x="0" y="48" width="64" height="2" fill="#ffffff"></rect>
    <rect x="0" y="56" width="64" height="2" fill="#ffffff"></rect>
  </g>
  
  <g>
    
    <rect x="32" y="12" width="4" height="4" fill="#fbbf24"></rect>
    
    <rect x="32" y="16" width="8" height="4" fill="#fbbf24"></rect>
    
    <rect x="32" y="20" width="12" height="4" fill="#fbbf24"></rect>
    
    <rect x="32" y="24" width="16" height="4" fill="#fbbf24"></rect>
    
    <rect x="32" y="28" width="20" height="4" fill="#fbbf24"></rect>
    
    <rect x="28" y="32" width="24" height="4" fill="#ffedd5"></rect>
    
    
    <rect x="12" y="40" width="40" height="4" fill="#fbbf24"></rect>
    
    <rect x="16" y="44" width="32" height="4" fill="#b45309"></rect>
  </g>
  
  <g opacity="0.65">
    <rect x="12" y="52" width="4" height="2" fill="#fde68a"></rect>
    <rect x="22" y="52" width="4" height="2" fill="#fde68a"></rect>
    <rect x="32" y="52" width="4" height="2" fill="#fde68a"></rect>
    <rect x="42" y="52" width="4" height="2" fill="#fde68a"></rect>
  </g>
</svg>